<mxfile host="app.diagrams.net" modified="2023-04-28T02:02:11.395Z" agent="Mozilla/5.0 (Windows NT 10.0; Win64; x64) AppleWebKit/537.36 (KHTML, like Gecko) Chrome/111.0.0.0 Safari/537.36" etag="ahLtC2ABjl1MIHojSnch" version="21.2.3" type="github">
  <diagram name="Page-1" id="fYxSC7fwjAasznGlOoNp">
    <mxGraphModel dx="989" dy="510" grid="1" gridSize="10" guides="1" tooltips="1" connect="1" arrows="1" fold="1" page="1" pageScale="1" pageWidth="1169" pageHeight="827" math="0" shadow="0">
      <root>
        <mxCell id="0" />
        <mxCell id="1" parent="0" />
        <mxCell id="aHwWcbNdfp-PUkd3VDPr-27" value="Github" style="swimlane;whiteSpace=wrap;html=1;" vertex="1" parent="1">
          <mxGeometry x="640" y="300" width="160" height="280" as="geometry" />
        </mxCell>
        <mxCell id="aHwWcbNdfp-PUkd3VDPr-25" value="" style="shape=image;html=1;verticalAlign=top;verticalLabelPosition=bottom;labelBackgroundColor=#ffffff;imageAspect=0;aspect=fixed;image=https://cdn0.iconfinder.com/data/icons/social-network-9/50/29-128.png" vertex="1" parent="aHwWcbNdfp-PUkd3VDPr-27">
          <mxGeometry y="20" width="60" height="60" as="geometry" />
        </mxCell>
        <mxCell id="aHwWcbNdfp-PUkd3VDPr-59" value="control-ci" style="rounded=0;whiteSpace=wrap;html=1;" vertex="1" parent="aHwWcbNdfp-PUkd3VDPr-27">
          <mxGeometry x="30" y="91" width="100" height="46" as="geometry" />
        </mxCell>
        <mxCell id="aHwWcbNdfp-PUkd3VDPr-60" value="control-cd" style="rounded=0;whiteSpace=wrap;html=1;" vertex="1" parent="aHwWcbNdfp-PUkd3VDPr-27">
          <mxGeometry x="30" y="180" width="100" height="50" as="geometry" />
        </mxCell>
        <mxCell id="aHwWcbNdfp-PUkd3VDPr-69" value="" style="endArrow=classic;html=1;rounded=0;entryX=0.5;entryY=1;entryDx=0;entryDy=0;" edge="1" parent="aHwWcbNdfp-PUkd3VDPr-27" target="aHwWcbNdfp-PUkd3VDPr-68">
          <mxGeometry width="50" height="50" relative="1" as="geometry">
            <mxPoint x="130" y="120" as="sourcePoint" />
            <mxPoint x="180" y="70" as="targetPoint" />
            <Array as="points">
              <mxPoint x="200" y="120" />
            </Array>
          </mxGeometry>
        </mxCell>
        <mxCell id="aHwWcbNdfp-PUkd3VDPr-28" value="Openshift" style="swimlane;whiteSpace=wrap;html=1;" vertex="1" parent="1">
          <mxGeometry x="880" y="300" width="160" height="280" as="geometry" />
        </mxCell>
        <mxCell id="aHwWcbNdfp-PUkd3VDPr-29" value="" style="image;sketch=0;aspect=fixed;html=1;points=[];align=center;fontSize=12;image=img/lib/mscae/OpenShift.svg;" vertex="1" parent="aHwWcbNdfp-PUkd3VDPr-28">
          <mxGeometry y="20" width="50" height="46" as="geometry" />
        </mxCell>
        <mxCell id="aHwWcbNdfp-PUkd3VDPr-38" value="" style="group" vertex="1" connectable="0" parent="aHwWcbNdfp-PUkd3VDPr-28">
          <mxGeometry x="30.39" y="130" width="99.22999999999999" height="40" as="geometry" />
        </mxCell>
        <mxCell id="aHwWcbNdfp-PUkd3VDPr-35" value="" style="sketch=0;outlineConnect=0;fontColor=#232F3E;gradientColor=none;fillColor=#232F3D;strokeColor=none;dashed=0;verticalLabelPosition=bottom;verticalAlign=top;align=center;html=1;fontSize=12;fontStyle=0;aspect=fixed;pointerEvents=1;shape=mxgraph.aws4.source_code;" vertex="1" parent="aHwWcbNdfp-PUkd3VDPr-38">
          <mxGeometry width="29.23" height="40" as="geometry" />
        </mxCell>
        <mxCell id="aHwWcbNdfp-PUkd3VDPr-36" value="" style="sketch=0;outlineConnect=0;fontColor=#232F3E;gradientColor=none;fillColor=#232F3D;strokeColor=none;dashed=0;verticalLabelPosition=bottom;verticalAlign=top;align=center;html=1;fontSize=12;fontStyle=0;aspect=fixed;pointerEvents=1;shape=mxgraph.aws4.source_code;" vertex="1" parent="aHwWcbNdfp-PUkd3VDPr-38">
          <mxGeometry x="35.39" width="29.23" height="40" as="geometry" />
        </mxCell>
        <mxCell id="aHwWcbNdfp-PUkd3VDPr-37" value="" style="sketch=0;outlineConnect=0;fontColor=#232F3E;gradientColor=none;fillColor=#232F3D;strokeColor=none;dashed=0;verticalLabelPosition=bottom;verticalAlign=top;align=center;html=1;fontSize=12;fontStyle=0;aspect=fixed;pointerEvents=1;shape=mxgraph.aws4.source_code;" vertex="1" parent="aHwWcbNdfp-PUkd3VDPr-38">
          <mxGeometry x="70" width="29.23" height="40" as="geometry" />
        </mxCell>
        <mxCell id="aHwWcbNdfp-PUkd3VDPr-30" value="K2 form" style="swimlane;whiteSpace=wrap;html=1;" vertex="1" parent="1">
          <mxGeometry x="400" y="440" width="160" height="140" as="geometry" />
        </mxCell>
        <mxCell id="aHwWcbNdfp-PUkd3VDPr-58" value="" style="sketch=0;pointerEvents=1;shadow=0;dashed=0;html=1;strokeColor=none;fillColor=#505050;labelPosition=center;verticalLabelPosition=bottom;verticalAlign=top;outlineConnect=0;align=center;shape=mxgraph.office.concepts.form;" vertex="1" parent="aHwWcbNdfp-PUkd3VDPr-30">
          <mxGeometry x="10" y="50" width="50" height="40" as="geometry" />
        </mxCell>
        <mxCell id="aHwWcbNdfp-PUkd3VDPr-72" value="" style="endArrow=classic;html=1;rounded=0;entryX=-0.031;entryY=0.606;entryDx=0;entryDy=0;entryPerimeter=0;" edge="1" parent="aHwWcbNdfp-PUkd3VDPr-30" target="aHwWcbNdfp-PUkd3VDPr-60">
          <mxGeometry width="50" height="50" relative="1" as="geometry">
            <mxPoint x="60" y="70" as="sourcePoint" />
            <mxPoint x="260" y="70" as="targetPoint" />
          </mxGeometry>
        </mxCell>
        <mxCell id="aHwWcbNdfp-PUkd3VDPr-34" value="user" style="shape=actor;whiteSpace=wrap;html=1;" vertex="1" parent="1">
          <mxGeometry x="460" y="340" width="40" height="60" as="geometry" />
        </mxCell>
        <mxCell id="aHwWcbNdfp-PUkd3VDPr-39" value="support portal" style="image;aspect=fixed;perimeter=ellipsePerimeter;html=1;align=center;shadow=0;dashed=0;fontColor=#4277BB;labelBackgroundColor=default;fontSize=12;spacingTop=3;image=img/lib/ibm/applications/api_developer_portal.svg;" vertex="1" parent="1">
          <mxGeometry x="930" y="200" width="60" height="60" as="geometry" />
        </mxCell>
        <mxCell id="aHwWcbNdfp-PUkd3VDPr-40" value="" style="endArrow=classic;html=1;rounded=0;exitX=1.013;exitY=0.572;exitDx=0;exitDy=0;exitPerimeter=0;" edge="1" parent="1" source="aHwWcbNdfp-PUkd3VDPr-60" target="aHwWcbNdfp-PUkd3VDPr-36">
          <mxGeometry width="50" height="50" relative="1" as="geometry">
            <mxPoint x="800" y="440" as="sourcePoint" />
            <mxPoint x="850" y="390" as="targetPoint" />
            <Array as="points">
              <mxPoint x="960" y="509" />
            </Array>
          </mxGeometry>
        </mxCell>
        <mxCell id="aHwWcbNdfp-PUkd3VDPr-41" value="helm release" style="text;html=1;strokeColor=none;fillColor=none;align=center;verticalAlign=middle;whiteSpace=wrap;rounded=0;" vertex="1" parent="1">
          <mxGeometry x="810" y="495" width="60" height="30" as="geometry" />
        </mxCell>
        <mxCell id="aHwWcbNdfp-PUkd3VDPr-65" value="" style="endArrow=classic;html=1;rounded=0;exitX=0.9;exitY=0.5;exitDx=0;exitDy=0;exitPerimeter=0;entryX=0;entryY=0.5;entryDx=0;entryDy=0;" edge="1" parent="1" source="aHwWcbNdfp-PUkd3VDPr-34" target="aHwWcbNdfp-PUkd3VDPr-39">
          <mxGeometry width="50" height="50" relative="1" as="geometry">
            <mxPoint x="500" y="370" as="sourcePoint" />
            <mxPoint x="550" y="320" as="targetPoint" />
            <Array as="points">
              <mxPoint x="496" y="230" />
            </Array>
          </mxGeometry>
        </mxCell>
        <mxCell id="aHwWcbNdfp-PUkd3VDPr-66" value="" style="endArrow=classic;html=1;rounded=0;" edge="1" parent="1">
          <mxGeometry width="50" height="50" relative="1" as="geometry">
            <mxPoint x="990" y="230" as="sourcePoint" />
            <mxPoint x="1010" y="450" as="targetPoint" />
            <Array as="points">
              <mxPoint x="1080" y="230" />
              <mxPoint x="1080" y="450" />
            </Array>
          </mxGeometry>
        </mxCell>
        <mxCell id="aHwWcbNdfp-PUkd3VDPr-67" value="edit deployment file directly" style="text;html=1;strokeColor=none;fillColor=none;align=center;verticalAlign=middle;whiteSpace=wrap;rounded=0;" vertex="1" parent="1">
          <mxGeometry x="1000" y="190" width="60" height="30" as="geometry" />
        </mxCell>
        <mxCell id="aHwWcbNdfp-PUkd3VDPr-68" value="Artifact&#xa;Registry" style="sketch=0;html=1;verticalAlign=top;labelPosition=center;verticalLabelPosition=bottom;align=center;spacingTop=-6;fontSize=11;fontStyle=1;fontColor=#999999;shape=image;aspect=fixed;imageAspect=0;image=data:image/svg+xml,PHN2ZyB4bWxucz0iaHR0cDovL3d3dy53My5vcmcvMjAwMC9zdmciIGlkPSJzdmc4MjciIHZlcnNpb249IjEuMSIgdmlld0JveD0iMCAwIDIwNS41MTIyOCAxODAuNTE4MjUiIGhlaWdodD0iMTgwLjUxODI1bW0iIHdpZHRoPSIyMDUuNTEyMjhtbSI+JiN4YTsgICYjeGE7ICA8ZGVmcyBpZD0iZGVmczgyNCIvPiYjeGE7ICA8ZyB0cmFuc2Zvcm09InRyYW5zbGF0ZSgtNC42MDIwNzI4LC01Ni43NjcxMjYpIiBpZD0ibGF5ZXIxIj4mI3hhOyAgICA8cGF0aCBkPSJtIDE0Mi4zMDMzMiwyMDIuNTM2NzUgMjYuNjMwNzgsLTE0Ljc0MDkzIHYgLTI5LjExOTQ4IGwgLTI2LjYzMDc4LDE0Ljg2ODYzIHogbSAtNC44MzQ4OSwwIC0yNi42MzA3OCwtMTQuNzQwOTMgdiAtMjkuMTE5NDggbCAyNi42MzA3OCwxNC44Njg2MyB6IG0gLTI3LjM3NTc4LC01My4zNDI2NCAyNi42MzA3NywtMTQuNzQwOTMgViAxMDUuMzMzNyBsIC0yNi42MzA3NywxNC44Njg2MyB6IG0gLTQuODM0OSwwIC0yNi42MzA3NzcsLTE0Ljc0MDkzIFYgMTA1LjMzMzcgbCAyNi42MzA3NzcsMTQuODY4NjMgeiBtIC0yNy4zNzU3ODgsNTMuMzQyNjQgMjYuNjMwNzc4LC0xNC43NDA5MyB2IC0yOS4xMTk0OCBsIC0yNi42MzA3NzgsMTQuODY4NjMgeiBtIC00LjgzNDg5MywwIC0yNi42MzA3NzksLTE0Ljc0MDkzIHYgLTI5LjExOTQ4IGwgMjYuNjMwNzc5LDE0Ljg2ODYzIHogTSAyMTAuMTE0MzYsMTg1LjQ1NzQzIFYgMTA4LjU1NzM1IEwgMTg5LjY4MTczLDk2LjcxMDk4MSBWIDE5Ny4zMjgwMiBaIG0gLTIwNS41MTIyODcyLDAgViAxMDguNTU3MzUgTCAyNS4wMzQ2OTYsOTYuNzEwOTgxIFYgMTk3LjMyODAyIFoiIHN0eWxlPSJvcGFjaXR5OjE7ZmlsbDojMzM2N2Q2O2ZpbGwtb3BhY2l0eToxO3N0cm9rZTpub25lO3N0cm9rZS13aWR0aDowLjI2NDU4M3B4O3N0cm9rZS1saW5lY2FwOmJ1dHQ7c3Ryb2tlLWxpbmVqb2luOm1pdGVyO3N0cm9rZS1vcGFjaXR5OjEiIGlkPSJwYXRoOTY3LTAtNiIvPiYjeGE7ICAgIDxwYXRoIGQ9Im0gMTM5Ljc5MjI1LDE2OC4yODM3OSAtMjYuMDI5NjQsLTE0LjUxMjkzIDI2LjAyOTY0LC0xNC40MTkzIDI2LjIxNjg5LDE0LjQxOTMgeiBNIDEwNy41ODE1NywxMTQuOTQxMTUgODEuNTUxOTM0LDEwMC40MjgyMiAxMDcuNTgxNTcsODYuMDA4OTE4IDEzMy43OTg0NiwxMDAuNDI4MjIgWiBtIC0zMi4yMTA2ODUsNTMuMzQyNjQgLTI2LjAyOTYzNCwtMTQuNTEyOTMgMjYuMDI5NjM0LC0xNC40MTkzIDI2LjIxNjg5NSwxNC40MTkzIHogbSA4Ni43OTQ3MDUsNjkuMDAxNTkgNDcuOTQ4NzcsLTI3Ljc4NzQ2IHYgLTI0LjA0MDQ5IGwgLTQ3Ljk0ODc3LDI3Ljg1ODIyIHogTSAyMTAuMTE0MzYsODQuNTUyNTU3IDE2Mi4xNjU1OSw1Ni43NjcxMjYgdiAyMy45NjU5MjEgbCA0Ny45NDg3NywyNy44MjQzMDMgeiBNIDUyLjU1MDgzNSwyMzcuMjg1MzggNC42MDIwNzI4LDIwOS40OTc5MiBWIDE4NS40NTc0MyBMIDUyLjU1MDgzNSwyMTMuMzE1NjUgWiBNIDQuNjAyMDcyOCw4NC41NTI1NTcgNTIuNTUwODM1LDU2Ljc2NzEyNiBWIDgwLjczMzA0NyBMIDQuNjAyMDcyOCwxMDguNTU3MzUgWiIgc3R5bGU9Im9wYWNpdHk6MTtmaWxsOiM1Yzg1ZGU7ZmlsbC1vcGFjaXR5OjE7c3Ryb2tlOm5vbmU7c3Ryb2tlLXdpZHRoOjAuMjY0NTgzcHg7c3Ryb2tlLWxpbmVjYXA6YnV0dDtzdHJva2UtbGluZWpvaW46bWl0ZXI7c3Ryb2tlLW9wYWNpdHk6MSIgaWQ9InBhdGg5NjktOCIvPiYjeGE7ICA8L2c+JiN4YTs8L3N2Zz4=;" vertex="1" parent="1">
          <mxGeometry x="819" y="140" width="42" height="37" as="geometry" />
        </mxCell>
        <mxCell id="aHwWcbNdfp-PUkd3VDPr-70" value="" style="endArrow=classic;html=1;rounded=0;entryX=0;entryY=0.5;entryDx=0;entryDy=0;" edge="1" parent="1" target="aHwWcbNdfp-PUkd3VDPr-59">
          <mxGeometry width="50" height="50" relative="1" as="geometry">
            <mxPoint x="480" y="400" as="sourcePoint" />
            <mxPoint x="530" y="350" as="targetPoint" />
            <Array as="points">
              <mxPoint x="480" y="414" />
            </Array>
          </mxGeometry>
        </mxCell>
        <mxCell id="aHwWcbNdfp-PUkd3VDPr-71" value="" style="endArrow=classic;html=1;rounded=0;" edge="1" parent="1" target="aHwWcbNdfp-PUkd3VDPr-58">
          <mxGeometry width="50" height="50" relative="1" as="geometry">
            <mxPoint x="460" y="390" as="sourcePoint" />
            <mxPoint x="510" y="340" as="targetPoint" />
            <Array as="points">
              <mxPoint x="435" y="390" />
            </Array>
          </mxGeometry>
        </mxCell>
        <mxCell id="aHwWcbNdfp-PUkd3VDPr-73" value="Api call" style="text;html=1;strokeColor=none;fillColor=none;align=center;verticalAlign=middle;whiteSpace=wrap;rounded=0;" vertex="1" parent="1">
          <mxGeometry x="570" y="490" width="60" height="30" as="geometry" />
        </mxCell>
      </root>
    </mxGraphModel>
  </diagram>
</mxfile>
